<svg width="43" height="43" viewBox="0 0 43 43" fill="none" xmlns="http://www.w3.org/2000/svg">
<path d="M37.5 1H5.5C3.01472 1 1 3.01472 1 5.5V37.5C1 39.9853 3.01472 42 5.5 42H37.5C39.9853 42 42 39.9853 42 37.5V5.5C42 3.01472 39.9853 1 37.5 1Z" fill="white" stroke="#EAC9F8"/>
<path d="M10.9908 13.0065H13.5245V14.9294H12.2426C10.9606 14.9294 10.9606 15.5704 10.9606 16.2114V21.5135C10.9606 22.489 11.8858 22.6203 11.8858 22.6203H13.5245V24.5432H10.9908C9.9127 24.5432 9.03845 23.6697 9.03845 22.5916V14.9581C9.03845 13.8807 9.91198 13.0065 10.9908 13.0065Z" fill="#FFAC33"/>
<path d="M12.8835 13.0065H23.7786V26.3111C23.7786 27.1006 23.1326 27.7466 22.343 27.7466H14.3191C13.5295 27.7466 12.8835 27.1006 12.8835 26.3111V13.0065Z" fill="#FFAC33"/>
<path d="M15.1266 25.8237C15.4804 25.8237 15.7676 25.5373 15.7676 25.1828V18.1335C15.7676 17.7797 15.4812 17.4926 15.1266 17.4926C14.7727 17.4926 14.4856 17.779 14.4856 18.1335V25.1828C14.4856 25.5373 14.7727 25.8237 15.1266 25.8237ZM18.3307 25.8237C18.6846 25.8237 18.9717 25.5373 18.9717 25.1828V18.1335C18.9717 17.7797 18.6853 17.4926 18.3307 17.4926C17.9768 17.4926 17.6897 17.779 17.6897 18.1335V25.1828C17.6905 25.5373 17.9768 25.8237 18.3307 25.8237ZM12.8835 15.2395V13.0065H23.7786V16.5078C23.569 16.5846 23.345 16.6334 23.1089 16.6334C22.2921 16.6334 21.5937 16.1302 21.303 15.4175C21.1322 15.5654 20.9118 15.6572 20.6692 15.6572C20.339 15.6572 20.0483 15.4921 19.8718 15.2409C19.5251 15.7836 18.9214 16.1453 18.2295 16.1453C17.595 16.1453 17.0359 15.8374 16.6798 15.368C16.5018 15.8223 16.0626 16.1453 15.5458 16.1453C15.0828 16.1453 14.6852 15.884 14.4777 15.5043C14.2839 15.5991 14.0686 15.6572 13.8375 15.6572C13.2044 15.6572 12.8835 15.2395 12.8835 15.2395Z" fill="#F4900C"/>
<path d="M30.9269 13.7602C30.7431 13.7602 30.5594 13.6899 30.4194 13.5499C30.1388 13.2692 30.1388 12.8149 30.4194 12.5342L32.9689 9.98615C33.2496 9.70622 33.7032 9.70622 33.9839 9.98615C34.2645 10.2661 34.2645 10.7212 33.9839 11.0018L31.4344 13.5499C31.2944 13.6906 31.1106 13.7602 30.9269 13.7602ZM27.9381 12.5421C27.8599 12.5421 27.7795 12.5285 27.7012 12.5012C27.3273 12.3706 27.1299 11.9615 27.2605 11.5868L27.9568 9.5964C28.0881 9.22245 28.4965 9.02506 28.8712 9.15569C29.2452 9.28633 29.4425 9.69546 29.3119 10.0701L28.6157 12.0605C28.5123 12.357 28.2345 12.5421 27.9381 12.5421ZM32.3474 16.6865C32.0516 16.6865 31.7746 16.5021 31.6705 16.2078C31.5384 15.8338 31.7351 15.424 32.1083 15.2919L33.8985 14.6596C34.2731 14.5268 34.6823 14.7242 34.8143 15.0974C34.9464 15.4714 34.7497 15.8812 34.3765 16.0133L32.5864 16.6456C32.5067 16.6736 32.4263 16.6865 32.3474 16.6865Z" fill="#FA743E"/>
<path d="M32.9259 20.1842H30.3922V22.1071H31.6741C32.956 22.1071 32.956 22.7481 32.956 23.389V28.6912C32.956 29.6667 32.0308 29.798 32.0308 29.798H30.3922V31.7209H32.9259C34.004 31.7209 34.8782 30.8474 34.8782 29.7693V22.1358C34.8782 21.0584 34.0047 20.1842 32.9259 20.1842Z" fill="#FFAC33"/>
<path d="M31.0331 20.1842H20.1381V33.4888C20.1381 34.2783 20.7841 34.9243 21.5736 34.9243H29.5976C30.3871 34.9243 31.0331 34.2783 31.0331 33.4888V20.1842Z" fill="#FFCC4D"/>
<path d="M22.3811 33.0014C22.0273 33.0014 21.7402 32.7151 21.7402 32.3605V25.3113C21.7402 24.9574 22.0273 24.6703 22.3811 24.6703C22.735 24.6703 23.0221 24.9567 23.0221 25.3113V32.3605C23.0221 32.7151 22.735 33.0014 22.3811 33.0014ZM28.7901 33.0014C28.4363 33.0014 28.1491 32.7151 28.1491 32.3605V25.3113C28.1491 24.9574 28.4355 24.6703 28.7901 24.6703C29.144 24.6703 29.4311 24.9567 29.4311 25.3113V32.3605C29.4311 32.7151 29.144 33.0014 28.7901 33.0014ZM25.586 33.0014C25.2321 33.0014 24.945 32.7151 24.945 32.3605V25.3113C24.945 24.9574 25.2314 24.6703 25.586 24.6703C25.9406 24.6703 26.227 24.9567 26.227 25.3113V32.3605C26.2262 32.7151 25.9398 33.0014 25.586 33.0014Z" fill="#F4900C"/>
<path d="M31.0331 22.4172V20.1842H20.1381V23.6855C20.3477 23.7623 20.5716 23.8111 20.8077 23.8111C21.6246 23.8111 22.323 23.3079 22.6137 22.5952C22.7845 22.7431 23.0048 22.8349 23.2474 22.8349C23.5776 22.8349 23.8683 22.6698 24.0449 22.4186C24.3916 22.9613 24.9952 23.323 25.6871 23.323C26.3217 23.323 26.8808 23.0151 27.2368 22.5457C27.4148 23 27.8541 23.323 28.3709 23.323C28.8339 23.323 29.2315 23.0617 29.4389 22.682C29.6327 22.7768 29.8481 22.8349 30.0792 22.8349C30.7123 22.8349 31.0331 22.4172 31.0331 22.4172Z" fill="#FFAC33"/>
<path d="M29.1102 16.9801H20.779C19.4971 16.9801 18.8561 17.6211 18.8561 18.903V20.8841C18.8561 21.9621 19.7304 22.8357 20.8078 22.8357C21.6246 22.8357 22.323 22.3325 22.6137 21.6205C22.7845 21.7676 23.0049 21.8602 23.2475 21.8602C23.5776 21.8602 23.8683 21.6951 24.0449 21.4439C24.3916 21.9858 24.9952 22.3476 25.6872 22.3476C26.3217 22.3476 26.8808 22.0397 27.2368 21.5702C27.4148 22.0246 27.8541 22.3476 28.3709 22.3476C28.8159 22.3476 29.1963 22.1035 29.4095 21.7468C29.5818 21.9112 29.8143 22.0138 30.0713 22.0138C30.6025 22.0138 31.0324 21.5832 31.0324 21.0527V18.903C31.0331 17.6211 30.3921 16.9801 29.1102 16.9801Z" fill="#EEEEEE"/>
</svg>
